<svg xmlns="http://www.w3.org/2000/svg" viewBox="0 3.08105 24 19.14">
  <path d="M12.0002 13.946C9.9412 13.946 8.27051 12.277 8.27051 10.2163C8.27051 8.15559 9.9412 6.48657 12.0002 6.48657C14.0593 6.48657 15.73 8.15559 15.73 10.2163C15.73 12.277 14.0593 13.946 12.0002 13.946ZM10.3786 10.2163C10.3786 11.1123 11.105 11.8379 12.0002 11.8379C12.8955 11.8379 13.6219 11.1123 13.6219 10.2163C13.6219 9.32034 12.8955 8.59468 12.0002 8.59468C11.105 8.59468 10.3786 9.32034 10.3786 10.2163Z
M0 10.2211L7.13513 3.08105H16.8649L24 10.2211L12 22.2162L0 10.2211ZM17.5135 7.62156C14.4818 4.57658 9.51816 4.5766 6.48649 7.62158L3.89189 10.2162L6.48649 12.8108C9.51816 15.8558 14.4818 15.8558 17.5135 12.8108L20.1081 10.2162L17.5135 7.62156Z" fill="#000000"/>
</svg>