<svg version="1" xmlns="http://www.w3.org/2000/svg" width="297.333" height="266.667" viewBox="0 0 223 200" preserveAspectRatio="xMidYMid meet"><g stroke="none"><path d="M105.8 1.5c-4 2.2-4.8 4.5-4.8 12.9 0 4.2-.3 7.6-.8 7.6-.4 0-6.5-1.6-13.6-3.5-7.1-2-13.1-3.4-13.3-3.1-.2.2 1.4 4 3.6 8.5 14.2 28.2 20.6 55.1 17 72.3-1.3 6.5-9 22.8-15.3 32.7-2.6 4-4.5 7.9-4.2 8.7.4 1.1 3.4 1.4 13.6 1.4h13v20H85.8c-13.4 0-15.7-.2-19.6-2.1-5.6-2.7-9.3-8.4-10-14.9l-.5-5H.7l.6 7.8c.7 8.5 3.7 18.1 8.2 25.8 4.4 7.5 15 17.4 23.1 21.7 14 7.3 13.5 7.2 73.9 7.2 53.4 0 54.1 0 58.7-2.2 6.9-3.1 14.1-10.4 21.2-21.3 3.5-5.2 8.4-12.7 11-16.7 3.7-5.6 6.2-8.2 11.6-11.8 3.7-2.5 8.2-5 9.9-5.6 3.1-1.1 3.1-1.1 3.1-8.6 0-6.6-.2-7.4-1.7-6.9-1 .3-13.7 3.9-28.3 8.1l-26.5 7.7-7 6.8c-9.2 9.1-11.6 10-26 10H121v-20h7.4c8.5 0 10.2-1 20-12 7.5-8.4 11-13.5 14.9-21.8 2.8-5.8 3.2-7.7 3.1-14.7-.1-9.7-2.3-16-9.6-27.2-5.2-8.1-26.6-30.3-32.6-33.8l-3.2-1.9v-8.8c0-9-1.3-14.2-4.3-16.6-2.4-2-7.9-2.4-10.9-.7z"/><path fill="#ECEBDF" d="M58.6 44.2C56.8 47.1 46 64 34.6 81.8 23.3 99.6 14 114.6 14 115.1s10.3.9 25.4.9h25.4l5.2-10.5c6.1-12.1 7.2-19.5 5-31.9C72.9 61.8 64.9 39 62.9 39c-.5 0-2.4 2.4-4.3 5.2z"/></g></svg>