<?xml version="1.0" standalone="no"?>
<!DOCTYPE svg PUBLIC "-//W3C//DTD SVG 20010904//EN"
 "http://www.w3.org/TR/2001/REC-SVG-20010904/DTD/svg10.dtd">
<svg version="1.0" xmlns="http://www.w3.org/2000/svg"
 width="1080.000000pt" height="1080.000000pt" viewBox="0 0 1080.000000 1080.000000"
 preserveAspectRatio="xMidYMid meet">

<g transform="translate(0.000000,1080.000000) scale(0.100000,-0.100000)"
fill="#000000" stroke="none">
<path d="M0 5400 l0 -5400 5400 0 5400 0 0 5400 0 5400 -5400 0 -5400 0 0
-5400z m4554 3374 c3 -9 6 -24 6 -35 0 -29 29 -23 48 11 21 37 38 37 113 4
l59 -27 0 -81 0 -81 -64 -33 c-103 -52 -113 -46 -139 81 -12 56 -12 57 -34 42
-12 -8 -24 -29 -28 -46 -6 -25 -2 -36 20 -59 l27 -28 -38 -11 c-24 -7 -150
-11 -316 -11 l-278 0 0 56 c0 45 5 62 25 85 20 25 23 34 14 57 -6 15 -20 37
-31 50 -12 12 -17 23 -12 23 48 6 304 16 445 17 153 2 178 0 183 -14z m1752 8
c32 -21 34 -51 33 -594 0 -393 -3 -553 -12 -578 l-12 -35 -140 0 -140 0 5 120
c3 66 3 237 1 379 -3 252 -2 260 20 307 17 38 25 46 36 38 36 -30 79 47 85
151 3 67 2 68 -41 55 -23 -7 -23 -6 9 39 18 25 31 49 27 52 -3 3 -34 -8 -68
-25 -34 -17 -63 -30 -65 -29 -2 3 -7 105 -5 121 1 9 252 9 267 -1z m554 -64
c-1 -40 -5 -93 -10 -118 -5 -26 -4 -52 1 -62 8 -14 2 -18 -37 -24 -25 -3 -127
-7 -227 -8 l-182 -1 -3 110 c-2 61 0 125 3 143 l6 32 224 0 225 0 0 -72z
m-1697 56 l37 -7 0 -582 c0 -321 -3 -590 -6 -599 -5 -13 -24 -16 -104 -16 -53
0 -118 3 -144 6 l-46 7 1 366 1 366 36 100 c35 94 39 100 67 103 17 1 53 -4
81 -11 l52 -13 -5 40 c-5 42 -27 86 -42 86 -5 0 -11 -13 -14 -30 l-6 -30 -86
0 -85 0 0 44 c0 61 16 102 34 87 11 -9 16 -5 26 18 13 34 8 48 -24 61 -25 10
168 13 227 4z m727 -6 c3 -206 -2 -1183 -5 -1187 -9 -8 -221 -14 -259 -7 l-36
7 0 426 0 425 45 -6 45 -7 0 84 0 85 -32 7 c-29 6 -30 8 -13 14 11 5 26 6 33
4 9 -4 12 13 12 67 0 60 -2 71 -15 66 -19 -7 -65 10 -65 24 0 6 53 10 145 10
109 0 145 -3 145 -12z m-220 -263 c0 -41 -2 -75 -5 -75 -3 0 -23 12 -45 26
-38 25 -40 30 -40 75 l0 49 45 0 45 0 0 -75z m-1395 -86 c11 1 57 4 102 7 l81
5 21 -47 c20 -44 21 -63 21 -430 l0 -384 -91 0 c-83 0 -90 2 -83 18 4 9 9 39
12 66 4 44 2 48 -14 42 -32 -13 -38 -12 -42 9 -12 54 -21 66 -42 55 -18 -10
-20 -8 -19 27 1 21 5 52 8 68 l8 30 14 -30 14 -29 11 49 c10 43 9 54 -7 80
-17 30 -17 34 0 118 14 73 15 92 5 117 -15 36 -29 38 -38 8 -6 -23 -7 -23 -21
-4 -11 15 -15 48 -15 129 l0 109 28 -8 c15 -4 36 -6 47 -5z m2515 -137 c0 -20
-4 -51 -9 -69 -6 -21 -4 -53 5 -98 8 -37 12 -71 8 -76 -3 -5 -45 -9 -94 -9
l-88 0 2 31 c2 45 -20 47 -35 5 l-13 -36 -78 0 c-88 0 -88 0 -68 85 6 25 5 67
-1 113 -6 39 -7 77 -4 82 4 6 79 10 191 10 l184 0 0 -38z m-1276 -72 c4 -52 8
-112 10 -132 4 -36 3 -37 -38 -44 -45 -9 -193 -7 -207 2 -5 3 -9 66 -9 140 l0
135 119 -3 119 -3 6 -95z m1227 -382 l2 -23 4 23 c5 23 19 26 78 13 l30 -6 5
-126 5 -126 -80 -7 c-44 -3 -149 -6 -232 -6 l-153 0 0 133 c0 74 3 137 7 140
3 4 80 7 170 7 162 0 163 0 164 -22z m-2510 -179 c6 -12 15 -35 19 -50 8 -27
7 -29 -21 -29 -28 0 -29 1 -29 50 0 53 12 64 31 29z m-1640 -634 c65 -14 74
-14 89 0 14 12 37 15 111 13 l94 -3 53 -80 c99 -150 115 -198 88 -265 -15 -38
-15 -42 4 -72 12 -20 20 -52 20 -78 l1 -45 17 24 c50 73 46 73 109 6 32 -33
73 -90 92 -125 36 -68 59 -100 72 -100 5 0 6 71 2 158 l-6 159 34 73 c20 45
29 75 23 77 -35 12 -42 30 -47 129 l-6 102 27 11 c72 28 212 40 305 25 l37 -7
0 -744 c0 -409 -4 -742 -8 -739 -5 3 -37 -4 -71 -14 -45 -14 -92 -20 -165 -20
l-102 0 -103 168 -103 167 6 66 c5 55 3 68 -10 73 -9 3 -19 4 -24 1 -13 -8
-103 105 -162 203 -55 91 -97 185 -98 216 0 10 -24 44 -52 75 -34 36 -84 114
-137 212 -46 85 -99 178 -118 206 -32 52 -63 117 -63 134 0 12 7 11 91 -6z
m1589 -10 c16 -42 61 -104 81 -110 17 -6 19 -18 19 -136 0 -95 -4 -138 -15
-158 -13 -26 -13 -30 0 -41 17 -14 19 -195 8 -724 l-6 -316 -22 20 c-29 27
-37 25 -25 -5 5 -14 6 -25 2 -25 -4 0 -18 -3 -31 -7 -17 -4 -22 -3 -17 6 4 7
5 35 1 64 l-7 51 -25 -48 -24 -47 -30 41 c-20 27 -40 43 -60 47 -19 4 -34 14
-39 28 -5 14 -23 28 -44 35 l-36 12 0 270 c0 265 0 270 20 265 23 -6 27 8 6
20 -9 5 -17 36 -21 84 l-7 77 30 18 c32 18 42 39 42 87 0 16 -5 27 -13 27 -8
0 -23 10 -35 23 -20 21 -21 33 -22 232 -1 116 -1 216 -1 223 1 9 34 12 131 12
129 0 131 0 140 -25z m411 10 c65 -14 74 -14 89 0 14 12 37 15 111 13 l94 -3
53 -80 c99 -150 115 -198 88 -265 -15 -38 -15 -42 4 -72 12 -20 20 -52 20 -78
l1 -45 17 24 c50 73 46 73 109 6 32 -33 73 -90 92 -125 36 -68 59 -100 72
-100 5 0 6 71 2 158 l-6 159 34 73 c20 45 29 75 23 77 -35 12 -42 30 -47 129
l-6 102 27 11 c72 28 212 40 305 25 l37 -7 0 -744 c0 -409 -4 -742 -8 -739 -5
3 -37 -4 -71 -14 -45 -14 -92 -20 -165 -20 l-102 0 -103 168 -103 167 6 66 c5
55 3 68 -10 73 -9 3 -19 4 -24 1 -13 -8 -103 105 -162 203 -55 91 -97 185 -98
216 0 10 -24 44 -52 75 -34 36 -84 114 -137 212 -46 85 -99 178 -118 206 -32
52 -63 117 -63 134 0 12 7 11 91 -6z m2856 0 c9 -3 11 -182 10 -749 -1 -409
-5 -747 -8 -750 -9 -10 -253 -19 -309 -12 l-55 7 2 757 c2 416 3 757 3 757 91
0 349 -7 357 -10z m874 -560 c-2 -503 -6 -639 -27 -733 -4 -19 -8 -21 -24 -12
-30 16 -39 12 -57 -25 -14 -29 -14 -39 -4 -62 33 -69 32 -83 -2 -103 -25 -16
-50 -20 -123 -20 l-90 0 -23 54 c-22 53 -22 62 -19 358 3 260 7 312 23 369
l19 65 -23 72 c-22 69 -23 82 -19 329 2 142 7 264 12 271 6 9 49 12 183 10
l175 -3 -1 -570z m-1671 546 c5 -11 10 -31 10 -45 0 -14 5 -26 10 -26 16 0 60
50 60 68 0 21 58 10 137 -25 l62 -28 1 -102 0 -101 -67 -37 c-38 -21 -84 -40
-104 -42 -37 -5 -37 -5 -58 51 -11 31 -21 69 -22 84 -1 15 -4 38 -8 50 l-6 24
-27 -22 c-15 -11 -32 -38 -38 -58 -10 -35 -9 -39 26 -70 19 -19 34 -35 32 -36
-23 -19 -138 -26 -442 -26 l-346 0 0 68 c0 61 3 71 31 105 37 45 34 75 -12
123 -28 29 -29 32 -12 39 24 10 280 21 545 23 206 2 218 1 228 -17z m-4107
-270 c45 -68 137 -242 137 -260 0 -5 -18 -12 -40 -16 -22 -4 -40 -10 -40 -14
0 -4 16 -22 35 -41 33 -32 35 -32 59 -16 14 9 28 16 30 16 14 0 96 -158 106
-203 24 -108 24 -106 -12 -65 l-33 37 -44 -19 c-56 -26 -64 -25 -112 7 -22 14
-50 27 -62 28 -28 2 -63 64 -78 136 -8 45 -3 479 6 479 1 0 23 -31 48 -69z
m2000 0 c45 -68 137 -242 137 -260 0 -5 -18 -12 -40 -16 -22 -4 -40 -10 -40
-14 0 -4 16 -22 35 -41 33 -32 35 -32 59 -16 14 9 28 16 30 16 14 0 96 -158
106 -203 24 -108 24 -106 -12 -65 l-33 37 -44 -19 c-56 -26 -64 -25 -112 7
-22 14 -50 27 -62 28 -28 2 -63 64 -78 136 -8 45 -3 479 6 479 1 0 23 -31 48
-69z m1730 -176 c25 -13 32 -13 57 0 19 10 58 15 117 15 l88 0 23 -53 c22 -52
22 -56 22 -534 l0 -483 -116 0 -116 0 16 25 c10 15 16 46 16 85 l0 60 -26 -16
c-29 -20 -36 -14 -53 44 -12 44 -20 49 -51 32 -17 -9 -18 -6 -13 53 3 34 9 71
13 82 7 18 10 15 26 -19 l19 -38 11 73 c10 67 9 77 -7 101 -24 33 -23 61 0
168 20 90 15 128 -21 158 -14 11 -17 7 -23 -25 l-7 -38 -19 35 c-15 29 -18 58
-19 163 0 140 2 144 63 112z m1502 -180 c0 -58 9 -77 32 -68 13 5 15 17 10 65
l-5 58 29 0 29 0 0 -157 c0 -87 -3 -168 -6 -180 -6 -21 -12 -23 -85 -23 -72 0
-79 2 -79 19 0 15 8 21 34 23 l34 3 -16 49 c-17 49 -18 49 -85 69 -55 16 -70
18 -77 8 -10 -17 -37 63 -46 137 l-7 53 119 -3 119 -3 0 -50z m-188 -225 c30
-18 70 -66 62 -74 -2 -2 -28 -1 -56 1 l-53 6 0 43 c0 24 3 44 8 44 4 0 21 -9
39 -20z m-4887 -118 l155 -107 3 -202 c2 -185 1 -203 -15 -212 -19 -10 -290
-14 -335 -5 l-28 6 0 314 0 314 33 0 c25 0 67 -24 187 -108z m2000 0 l155
-107 3 -202 c2 -185 1 -203 -15 -212 -19 -10 -290 -14 -335 -5 l-28 6 0 314 0
314 33 0 c25 0 67 -24 187 -108z m1570 -481 c14 -51 14 -51 -25 -51 l-35 0 0
67 0 66 25 -23 c14 -13 29 -40 35 -59z m-2903 -543 c6 -7 169 -371 362 -808
l352 -795 -16 -41 c-14 -37 -14 -46 -2 -77 8 -19 25 -42 38 -50 27 -19 26 -20
-25 -41 -34 -14 -102 -16 -540 -16 -386 0 -506 3 -519 13 -14 11 -4 34 95 220
l111 207 74 0 c63 0 73 -2 74 -17 0 -10 10 -49 23 -88 20 -65 23 -68 34 -48
26 47 25 105 -3 198 -52 173 -62 210 -69 256 -6 44 -5 46 34 77 l40 33 -41 52
c-23 29 -45 53 -49 55 -4 2 -18 -10 -30 -25 l-22 -28 -24 30 c-32 40 -105 246
-111 317 l-6 57 39 3 c35 3 39 6 50 43 8 28 8 47 1 63 -12 26 -20 28 -37 7
-11 -13 -60 -22 -60 -10 0 2 16 33 35 68 l35 63 -30 22 c-16 13 -37 33 -46 47
-15 23 -14 30 11 107 42 126 33 118 129 118 55 0 87 -4 93 -12z m1277 -290 c9
-424 10 -1499 1 -1520 -6 -16 -27 -18 -225 -18 l-219 0 5 73 c3 39 10 98 16
129 9 50 14 58 40 67 21 8 28 15 25 28 -3 10 -8 33 -12 51 l-7 33 -20 -26
c-11 -14 -24 -25 -29 -25 -5 0 -9 219 -9 550 l0 550 27 0 c15 0 37 -10 50 -22
29 -27 53 -16 67 30 6 22 19 35 45 46 77 31 77 29 10 151 -61 111 -62 119 -39
180 10 25 10 25 138 25 l129 0 7 -302z m1693 290 c6 -7 168 -370 361 -806
l351 -793 -15 -44 c-13 -39 -13 -49 0 -78 7 -19 24 -42 37 -51 20 -14 22 -18
9 -26 -8 -5 -23 -10 -32 -10 -9 0 -20 -4 -23 -10 -4 -6 -100 -10 -256 -10
l-250 0 20 -26 c17 -22 21 -41 21 -108 0 -103 -12 -144 -52 -183 -46 -45 -76
-53 -189 -53 l-99 0 0 -65 0 -65 257 0 256 0 73 45 c91 57 139 78 237 105 74
20 79 21 91 4 12 -16 14 -15 28 4 12 18 24 22 67 21 42 -1 51 -5 46 -17 -3 -8
2 -23 11 -33 16 -18 15 -19 -34 -19 -31 0 -52 5 -56 13 -3 8 -8 7 -16 -5 -13
-22 -32 -24 -24 -3 4 8 1 15 -5 15 -6 0 -11 -7 -11 -15 0 -18 -37 -20 -42 -3
-3 8 -10 8 -26 -4 -12 -8 -20 -17 -17 -20 3 -2 -20 -12 -50 -22 -110 -34 -253
-132 -326 -223 -37 -47 -109 -162 -109 -175 0 -4 104 -8 230 -8 147 0 230 -4
230 -10 0 -14 28 -12 32 2 3 8 16 5 40 -10 25 -15 39 -19 43 -12 5 8 13 3 23
-11 l15 -22 8 21 c10 26 39 29 40 5 0 -11 5 -7 11 10 10 28 12 28 79 25 38 -1
69 -6 69 -10 0 -4 -4 -8 -10 -8 -5 0 -10 -7 -10 -15 0 -20 30 -32 40 -16 4 7
11 12 16 10 5 -1 14 8 20 20 l12 22 6 -26 c4 -14 4 -30 1 -35 -3 -5 -107 -9
-230 -9 -172 -1 -225 2 -226 12 0 9 -2 9 -6 0 -7 -18 -43 -16 -43 2 0 9 -9 15
-25 15 -14 0 -25 -6 -25 -14 0 -11 -46 -14 -252 -15 -187 -1 -254 -4 -259 -13
-6 -9 -11 -5 -18 12 -9 23 -9 22 -9 -12 1 -25 6 -38 15 -38 10 0 13 -22 13
-90 l0 -90 50 0 c38 0 50 -4 50 -15 0 -8 7 -15 15 -15 8 0 15 7 15 15 0 11 12
15 50 15 52 0 70 -16 23 -22 -14 -2 -28 -9 -31 -16 -2 -7 2 -13 9 -11 30 4 50
-2 44 -12 -4 -6 -21 -9 -39 -8 -65 4 -79 0 -73 -21 3 -14 0 -20 -10 -20 -14 0
-14 -2 0 -18 12 -13 17 -36 17 -73 0 -36 7 -65 20 -87 11 -18 20 -39 20 -48 0
-9 7 -14 18 -13 9 2 26 0 37 -4 27 -8 74 -18 106 -21 23 -2 25 0 21 27 -3 22
1 34 14 44 18 13 18 15 2 24 -23 13 -25 66 -3 66 10 0 14 -6 10 -14 -3 -11 1
-13 15 -8 23 7 23 7 24 -87 1 -65 1 -67 -21 -61 -22 5 -23 3 -13 -22 14 -36
12 -54 -3 -34 -9 11 -26 14 -67 12 -53 -4 -54 -3 -32 12 29 21 28 35 -3 35
-20 0 -25 -5 -25 -25 0 -29 -8 -30 -58 -10 -42 18 -108 83 -123 123 -6 14 -13
67 -16 115 -4 70 -2 91 8 98 9 6 0 9 -28 9 -32 0 -48 6 -68 25 -24 25 -25 30
-25 161 0 131 1 136 25 160 20 20 35 25 63 23 66 -4 69 -1 101 67 17 36 31 68
31 70 0 2 -83 4 -184 4 -110 0 -197 5 -217 11 -98 33 -149 116 -149 242 l0 77
-99 0 c-113 0 -143 8 -189 53 -41 39 -52 80 -52 190 0 74 3 90 20 107 l20 20
-160 0 c-135 0 -162 2 -166 15 -5 12 492 1177 551 1294 12 24 12 24 41 -24 35
-60 214 -508 214 -536 0 -57 -44 -171 -168 -439 -117 -250 -141 -295 -162
-301 -15 -4 12 -7 64 -8 74 -1 87 1 73 12 -14 11 -4 34 95 220 l111 207 74 0
c63 0 73 -2 74 -17 0 -10 10 -49 23 -88 20 -65 23 -68 34 -48 26 47 25 105 -3
198 -52 173 -62 210 -69 256 -6 44 -5 46 34 77 l40 33 -41 52 c-23 29 -45 53
-49 55 -4 2 -18 -10 -30 -25 l-22 -28 -24 30 c-32 40 -105 246 -111 317 l-6
57 39 3 c35 3 39 6 50 43 8 28 8 47 1 63 -12 26 -20 28 -37 7 -11 -13 -60 -22
-60 -10 0 2 16 33 35 68 l35 63 -30 22 c-16 13 -37 33 -46 47 -15 23 -14 30
11 107 42 126 33 118 129 118 55 0 87 -4 93 -12z m1792 -10 c5 -13 5 -45 0
-73 -4 -27 -8 -74 -8 -104 l-1 -53 -19 23 c-26 32 -50 17 -67 -41 -19 -64 -13
-74 32 -55 20 8 40 15 45 15 10 0 12 -73 3 -119 -6 -30 -8 -31 -60 -31 -30 0
-107 -11 -172 -25 l-117 -25 -68 -72 c-71 -77 -87 -113 -107 -234 -14 -87 -12
-213 5 -270 8 -27 39 -85 69 -129 35 -51 52 -83 46 -89 -16 -16 -11 -53 7 -60
9 -4 23 0 31 8 13 12 13 18 2 30 -18 23 -10 20 75 -20 41 -20 80 -45 86 -55 8
-15 14 -18 23 -10 14 11 21 6 41 -28 5 -10 4 -12 -4 -7 -13 8 -32 -33 -23 -49
4 -5 5 -17 4 -27 -4 -21 12 -30 53 -30 40 0 77 28 51 38 -26 10 -18 24 12 24
15 0 33 5 40 12 23 23 13 -48 -10 -78 -31 -39 -70 -73 -85 -74 -17 0 -4 -30
12 -30 8 0 20 7 29 15 8 8 21 15 28 15 10 0 9 -3 -2 -10 -12 -8 -13 -11 -1
-19 15 -10 -2 -26 -18 -17 -15 9 -34 -22 -29 -48 4 -22 3 -23 -19 -15 -26 10
-31 2 -8 -15 13 -10 12 -16 -14 -46 -17 -19 -30 -30 -31 -23 0 6 -13 11 -29
11 -15 -1 -33 2 -40 6 -7 4 -18 2 -26 -4 -11 -9 -19 -9 -28 -2 -7 6 -22 10
-32 10 -35 -3 -75 12 -75 27 0 17 -16 20 -25 5 -15 -24 -95 63 -95 104 0 19
-46 69 -57 63 -5 -3 -15 -2 -23 3 -17 11 -44 -15 -36 -36 7 -19 26 -9 26 14 1
14 4 13 20 -7 19 -22 28 -91 13 -91 -5 0 -42 28 -83 61 -41 33 -101 81 -132
106 -32 26 -58 50 -58 55 0 15 21 51 43 76 l21 23 -26 22 c-54 45 -72 159 -44
282 9 39 16 81 16 94 0 24 0 24 -20 6 -62 -56 -87 -167 -64 -280 l12 -60 -24
30 c-13 17 -26 39 -29 50 -2 11 -9 136 -15 277 l-11 257 31 112 c24 85 46 134
88 203 69 113 95 142 141 157 22 7 57 34 91 71 49 52 66 63 150 95 105 40 308
80 413 82 61 1 68 -1 76 -21z m-6515 -11 c58 -38 56 -11 56 -935 0 -960 7
-884 -79 -864 -34 8 -59 8 -82 1 -35 -11 -228 -14 -257 -5 -16 5 -17 75 -15
913 2 500 3 909 3 911 0 2 78 2 173 0 147 -3 177 -6 201 -21z m436 -23 c93
-35 157 -74 212 -131 62 -64 76 -93 111 -222 28 -103 25 -213 -7 -236 -17 -13
-17 -15 0 -40 17 -26 17 -29 -4 -94 -34 -105 -102 -196 -196 -260 -70 -48 -93
-58 -194 -82 -62 -14 -121 -25 -130 -23 -10 1 -29 5 -45 9 l-27 5 26 52 c24
47 25 55 14 92 -11 35 -14 38 -20 21 -7 -19 -8 -18 -14 5 -4 14 -6 70 -4 125
l3 100 56 27 c60 28 119 87 119 119 0 64 -65 140 -134 158 l-46 11 0 186 c0
102 4 193 9 203 9 17 17 17 118 5 59 -7 128 -21 153 -30z m6713 25 c15 -11 31
-37 37 -58 14 -55 13 -1090 -2 -1108 -6 -8 -11 -27 -10 -43 1 -29 -13 -41 -20
-19 -2 6 -16 -1 -31 -15 -17 -15 -23 -27 -16 -32 6 -3 16 -1 22 5 6 6 7 11 1
11 -5 0 -3 4 4 9 7 4 24 6 38 3 20 -4 24 -10 24 -43 0 -22 -5 -39 -11 -39 -7
0 -10 -12 -7 -29 2 -17 1 -28 -3 -25 -16 9 -21 -20 -6 -31 10 -7 14 -20 10
-33 -3 -14 -1 -22 7 -22 19 0 7 -244 -15 -297 l-17 -43 -104 0 c-97 0 -104 1
-104 20 0 11 -4 20 -10 20 -5 0 -10 -9 -10 -20 0 -18 -7 -20 -72 -20 -40 0
-84 3 -96 7 -22 5 -23 9 -17 52 4 25 7 83 6 128 -1 68 1 82 13 77 8 -3 19 3
26 15 7 14 7 21 0 21 -5 0 -10 -7 -10 -16 0 -9 -6 -14 -12 -12 -16 6 -23 58
-8 58 6 0 8 11 6 26 -5 25 -4 25 19 10 28 -19 35 -20 35 -6 0 6 -7 10 -15 10
-9 0 -12 6 -8 16 4 10 -1 17 -16 21 -12 3 -21 13 -21 25 0 10 5 16 10 13 6 -3
17 1 26 10 9 9 15 17 13 18 -44 24 -44 24 -47 91 -2 53 0 66 12 66 14 0 46 36
46 51 0 4 -13 12 -30 18 -27 9 -30 14 -30 55 0 30 4 46 13 47 10 0 10 2 0 6
-7 2 -13 15 -13 27 0 12 6 28 13 35 10 10 9 14 -5 22 -16 9 -18 26 -17 132 0
114 2 127 31 194 29 68 33 72 49 57 33 -30 61 -14 97 56 27 55 33 80 39 161 4
67 2 98 -5 103 -7 4 -32 -2 -58 -13 l-46 -21 36 48 c44 57 69 102 62 109 -8 8
-108 -34 -160 -67 l-45 -29 -3 92 c-2 51 -2 98 0 105 3 9 50 12 192 12 174 0
189 -1 213 -21z m813 -141 c-3 -90 -7 -174 -8 -188 -1 -14 2 -32 6 -41 11 -25
-32 -29 -366 -36 l-298 -5 0 200 c0 110 3 207 6 216 5 14 44 16 336 16 l330 0
-6 -162z m-6438 -318 c7 -11 9 -20 5 -20 -10 0 -43 32 -43 41 0 14 25 0 38
-21z m2970 0 c7 -11 9 -20 5 -20 -10 0 -43 32 -43 41 0 14 25 0 38 -21z
m-3096 -94 c34 -66 198 -486 198 -507 0 -57 -44 -172 -168 -439 -117 -250
-141 -295 -162 -301 -14 -4 -125 -7 -248 -8 -191 -1 -223 1 -228 14 -4 9 119
304 277 666 311 715 283 667 331 575z m6468 -186 c0 -27 -5 -73 -11 -101 -9
-43 -8 -71 6 -151 9 -54 15 -105 11 -113 -4 -12 -29 -15 -137 -15 l-132 0 7
41 c6 39 -4 69 -24 69 -4 0 -18 -25 -31 -55 l-24 -55 -113 1 c-61 1 -114 5
-117 10 -3 4 0 38 6 74 10 54 16 65 32 65 11 0 18 3 15 6 -4 3 -10 5 -15 4 -9
-1 -31 142 -32 218 l-1 52 280 0 280 0 0 -50z m-1420 -640 c0 -6 -7 -13 -16
-17 -8 -3 -13 -12 -10 -19 3 -9 -2 -14 -14 -14 -24 0 -37 20 -20 30 7 4 9 13
6 19 -5 7 4 11 23 11 17 0 31 -5 31 -10z m-2763 -16 l30 -6 5 -196 c3 -109 5
-198 4 -198 0 -1 -130 -5 -288 -9 -278 -7 -288 -7 -288 11 0 33 39 85 76 100
39 16 39 24 3 96 -22 44 -50 63 -67 46 -9 -9 -12 9 -12 75 l0 87 254 0 c139 0
267 -3 283 -6z m4103 -41 c0 -54 17 -48 22 7 l3 35 47 -3 c26 -2 60 -7 75 -11
l28 -7 6 -175 c3 -96 9 -182 14 -191 6 -16 -1 -18 -78 -18 -51 0 -89 4 -93 11
-4 8 -9 8 -17 0 -17 -17 -50 -14 -43 4 3 9 0 15 -9 15 -8 0 -15 -6 -15 -14 0
-18 -96 -26 -287 -25 l-143 1 0 208 0 209 245 0 245 0 0 -46z m-4621 -218 l0
-20 -9 20 c-5 11 -9 27 -9 35 -1 13 0 13 9 0 5 -8 9 -24 9 -35z m2531 -479 c0
-3 -4 -8 -10 -11 -5 -3 -10 -1 -10 4 0 6 5 11 10 11 6 0 10 -2 10 -4z m164
-26 c44 -11 85 -25 93 -31 23 -20 -3 -73 -31 -63 -69 23 -71 25 -53 35 9 6 15
15 11 20 -4 6 -11 6 -19 -1 -8 -7 -24 -9 -37 -5 -18 5 -20 4 -8 -4 11 -9 4
-10 -30 -5 -55 8 -67 17 -67 49 0 21 4 25 31 25 17 0 67 -9 110 -20z m206 -90
c13 -11 28 -20 34 -20 15 -1 66 -46 66 -59 0 -5 -10 -17 -21 -25 -19 -13 -24
-13 -45 1 -13 8 -24 22 -24 30 0 7 -6 13 -14 11 -18 -4 -20 1 -10 26 5 13 2
23 -9 31 -9 7 -14 15 -10 18 8 9 7 10 33 -13z m135 -120 c9 -10 15 -26 12 -35
-4 -9 -1 -15 8 -15 8 0 15 7 15 15 0 8 3 15 8 15 8 0 86 -104 121 -163 22 -36
22 -39 6 -63 -16 -24 -15 -25 2 -24 30 4 33 1 24 -23 -5 -14 -5 -30 0 -40 8
-14 5 -17 -17 -17 -21 0 -25 4 -19 18 12 32 10 37 -22 40 -35 3 -40 -6 -23
-38 9 -18 3 -18 -120 -18 -115 0 -131 2 -140 18 -5 9 -6 21 -2 25 4 5 -1 5
-10 2 -19 -7 -25 7 -9 18 6 3 18 -4 29 -15 l19 -21 6 21 c4 16 12 20 37 18 27
-2 30 -5 25 -26 -5 -20 -3 -23 15 -17 11 4 20 2 20 -4 0 -6 5 -11 10 -11 16 0
11 32 -7 46 -16 11 -7 13 60 14 42 0 77 2 77 5 0 3 -9 24 -20 45 -17 34 -18
40 -5 40 8 0 15 9 15 21 0 11 5 17 10 14 6 -3 10 -2 10 4 0 5 -4 13 -10 16 -5
3 -10 1 -10 -4 0 -6 -12 -11 -27 -10 -16 0 -22 3 -15 6 6 2 12 13 12 24 0 16
-5 18 -26 13 -23 -6 -33 0 -70 41 -24 26 -44 49 -44 52 0 2 10 2 23 -2 20 -6
21 -5 5 8 -10 8 -15 17 -11 20 10 11 19 8 38 -13z m295 -284 c0 -2 -7 -6 -15
-10 -8 -3 -15 -1 -15 4 0 6 7 10 15 10 8 0 15 -2 15 -4z m-140 -37 c0 -6 -4
-7 -10 -4 -5 3 -10 11 -10 16 0 6 5 7 10 4 6 -3 10 -11 10 -16z m198 9 c17
-17 17 -238 0 -239 -10 0 -10 -2 0 -6 19 -7 15 -53 -5 -53 -9 0 -24 -7 -33
-15 -10 -9 -25 -13 -34 -9 -20 8 -22 54 -1 54 9 0 15 9 15 21 0 18 2 19 15 9
13 -11 15 -8 15 14 0 16 -5 26 -15 26 -12 0 -15 13 -15 60 0 33 3 60 8 59 4
-1 17 2 29 6 23 7 28 45 6 45 -15 0 -26 17 -18 30 8 13 18 13 33 -2z m-48 -8
c0 -5 -2 -10 -4 -10 -3 0 -8 5 -11 10 -3 6 -1 10 4 10 6 0 11 -4 11 -10z m4
-31 c5 -5 6 -12 1 -16 -4 -5 -10 -2 -12 5 -3 7 -23 12 -46 13 -33 0 -38 2 -22
9 22 10 64 4 79 -11z m-1194 -242 c0 -8 3 -8 8 -2 10 15 148 13 163 -2 10 -10
10 -13 1 -13 -7 0 -12 -7 -12 -16 0 -11 -6 -15 -20 -11 -11 3 -23 1 -26 -4 -9
-15 -52 -10 -62 8 -7 11 -15 14 -28 8 -11 -4 -24 -7 -31 -6 -6 1 -14 -3 -18
-9 -3 -5 -26 -10 -51 -10 l-44 0 0 -59 c0 -33 -4 -63 -10 -66 -6 -4 -7 10 -4
36 5 32 3 40 -7 37 -8 -3 -13 -16 -13 -29 1 -22 -11 -38 -28 -39 -5 0 -8 27
-8 60 0 53 -2 60 -20 60 -11 0 -20 6 -20 14 0 7 -9 16 -20 19 -11 3 -18 1 -14
-4 3 -5 1 -9 -4 -9 -5 0 -12 11 -14 25 l-5 25 143 -1 c105 0 144 -3 144 -12z
m600 -1 c0 -7 16 -18 35 -26 19 -8 35 -16 35 -19 0 -4 -24 -7 -54 -9 -45 -3
-55 0 -58 14 -3 17 -4 17 -20 0 -14 -13 -34 -16 -110 -15 -51 1 -104 6 -118
11 -16 6 -26 6 -28 -1 -5 -14 -69 -14 -77 -1 -3 5 -12 7 -20 3 -8 -3 -15 -2
-15 1 0 4 12 11 26 16 14 6 22 14 19 20 -3 6 1 7 9 4 9 -3 16 -1 16 5 0 8 52
11 180 10 134 -1 180 -4 180 -13z m437 -2 c0 -7 -4 -11 -8 -9 -6 5 -23 -23
-21 -35 0 -3 -18 -7 -41 -7 -29 -2 -44 3 -54 16 -14 21 -61 17 -70 -5 -6 -16
-43 -19 -43 -4 0 6 -6 10 -14 10 -22 0 -29 18 -14 34 18 19 265 19 265 0z
m-300 -24 c27 -21 18 -32 -22 -27 -26 3 -37 18 -23 34 14 17 15 17 45 -7z
m348 -2 c7 -17 17 -22 36 -20 25 2 25 2 15 -43 -7 -29 -16 -45 -26 -45 -12 0
-13 2 -1 9 19 12 6 42 -14 35 -13 -5 -15 -2 -10 19 5 20 2 28 -14 37 -12 6
-19 15 -16 21 10 15 20 11 30 -13z m-237 -116 c-2 -15 -10 -26 -20 -28 -25 -3
-32 14 -18 41 16 30 42 21 38 -13z m-548 4 c0 -7 7 -19 15 -26 13 -11 22 -8
52 13 34 24 38 25 70 12 53 -22 90 -53 123 -100 34 -50 36 -55 15 -55 -22 0
-14 -44 10 -50 17 -5 20 -13 18 -63 -3 -73 -34 -135 -74 -149 -16 -6 -28 -15
-26 -22 2 -6 -5 -19 -16 -28 -24 -22 -31 -23 -24 -3 4 8 2 17 -3 20 -9 5 -15
-15 -11 -37 1 -8 -66 -31 -79 -26 -6 2 -4 14 5 31 16 31 14 32 -32 15 -18 -7
-35 -20 -39 -30 -6 -21 -30 -23 -73 -5 -30 13 -30 13 -14 38 10 13 18 26 18
29 0 3 5 3 10 1 6 -2 22 -6 38 -9 15 -2 27 -8 27 -13 0 -5 7 -9 16 -9 8 0 13
4 10 9 -3 5 12 11 35 14 22 3 55 18 75 34 20 15 44 32 54 37 33 18 46 168 17
204 -6 7 -10 30 -9 51 2 40 -20 73 -33 51 -10 -17 -24 -2 -18 20 3 11 0 20 -6
20 -6 0 -11 -7 -11 -16 0 -8 -4 -13 -9 -10 -5 4 -11 1 -13 -5 -3 -9 -18 -8
-54 3 -47 14 -55 13 -100 -4 -27 -11 -68 -38 -91 -61 -24 -23 -43 -36 -43 -29
0 7 -6 12 -12 11 -37 -4 -49 1 -39 19 16 29 83 92 93 86 5 -3 4 -11 -2 -19
-16 -19 6 -30 26 -14 9 7 27 13 42 14 16 0 26 6 28 18 4 30 13 47 24 47 5 0
10 -6 10 -14z m810 -37 c0 -5 -7 -9 -15 -9 -15 0 -20 12 -9 23 8 8 24 -1 24
-14z m-280 -44 c0 -8 3 -15 8 -15 4 0 7 -14 8 -30 1 -17 -3 -30 -7 -30 -5 0
-9 -5 -9 -11 0 -5 6 -7 13 -3 9 5 9 4 1 -5 -12 -13 -74 -4 -74 11 0 6 7 8 15
4 19 -7 19 13 0 38 -8 11 -15 25 -15 32 0 11 9 15 53 23 4 0 7 -6 7 -14z m282
-79 c-11 -18 -25 -30 -35 -28 -11 2 -17 -4 -17 -16 0 -35 -21 -42 -46 -15 -13
14 -21 30 -18 35 11 17 48 26 62 15 9 -7 17 -5 27 9 8 10 15 24 15 31 0 7 7
10 15 7 14 -6 13 -10 -3 -38z m-754 9 c33 5 31 1 -7 -11 -10 -3 -11 -7 -2 -18
8 -10 9 -16 1 -21 -15 -9 -40 20 -39 47 0 13 3 17 6 10 3 -8 17 -11 41 -7z
m-63 -35 c20 0 19 -14 -1 -31 -11 -9 -14 -23 -10 -47 6 -41 22 -62 47 -62 21
0 25 15 7 24 -7 3 -3 3 9 0 21 -5 22 -2 19 45 -2 45 0 50 20 55 17 5 22 11 17
24 -6 15 -5 15 8 2 8 -8 20 -27 28 -41 25 -50 -20 -129 -84 -145 -35 -9 -102
14 -124 43 -31 38 -28 103 6 143 26 31 27 32 35 11 4 -11 14 -21 23 -21z
m-215 11 c0 -12 -20 -25 -27 -18 -7 7 6 27 18 27 5 0 9 -4 9 -9z m45 -19 c-3
-3 -11 0 -18 7 -9 10 -8 11 6 5 10 -3 15 -9 12 -12z m-55 -22 c0 -5 8 -10 18
-11 9 0 4 -5 -12 -10 -34 -10 -41 -6 -33 16 7 17 27 21 27 5z m890 -4 c0 -7 7
-19 15 -26 21 -17 3 -30 -43 -30 -47 0 -77 17 -61 36 8 10 8 14 0 14 -6 0 -11
5 -11 10 0 6 23 10 50 10 36 0 50 -4 50 -14z m-819 -122 c8 -10 5 -15 -15 -20
-14 -3 -26 -14 -27 -23 0 -10 -2 -12 -6 -3 -3 7 1 19 7 28 7 8 9 18 5 22 -4 4
-10 1 -12 -5 -3 -7 -12 -13 -20 -13 -12 0 -14 7 -9 30 3 17 1 30 -4 30 -6 0
-10 5 -10 12 0 7 7 5 18 -5 14 -13 19 -13 30 -1 6 7 12 19 13 26 1 7 5 -5 10
-26 5 -22 14 -45 20 -52z m669 47 c0 -11 -9 -20 -23 -23 -20 -4 -22 -1 -19 29
4 28 7 31 23 22 10 -5 19 -18 19 -28z m-914 -66 c8 -21 9 -36 1 -52 -9 -20
-12 -21 -26 -9 -9 8 -20 14 -25 13 -5 -1 -12 8 -17 19 -6 18 -4 21 12 17 10
-3 19 -1 19 5 0 13 -25 33 -32 26 -3 -3 -9 -1 -12 5 -4 6 8 9 31 8 30 -2 39
-8 49 -32z m888 -7 c4 6 11 12 16 12 9 0 1 -39 -12 -57 -6 -7 -4 -13 4 -16 10
-3 10 -10 -2 -32 -17 -33 -47 -49 -36 -20 4 11 0 25 -9 36 -15 16 -15 18 4 24
22 7 27 20 12 29 -4 3 -6 18 -3 33 l6 28 6 -25 c4 -17 8 -21 14 -12z m-593
-34 c22 -20 6 -43 -27 -36 -19 3 -20 7 -10 28 13 28 14 29 37 8z m-243 -67
c16 -25 15 -27 -5 -47 -28 -25 -39 -25 -53 0 -8 15 -8 20 1 20 7 0 9 3 5 8 -4
4 -12 7 -17 7 -5 0 -9 3 -9 8 0 28 2 30 15 13 15 -20 40 -12 31 11 -10 24 14
10 32 -20z m770 -33 c27 -8 28 -34 3 -65 -17 -22 -19 -22 -35 -6 -10 9 -14 17
-9 17 4 0 2 4 -6 9 -10 7 -11 13 -2 30 13 23 15 24 49 15z m-50 -91 c6 -39
-117 -112 -225 -134 l-62 -13 -29 32 c-29 31 -29 32 -8 32 12 0 27 -5 33 -11
7 -7 16 -5 28 8 10 10 21 18 24 18 25 2 114 41 146 65 47 34 88 36 93 3z
m-581 -34 c3 -10 9 -16 14 -13 5 3 6 10 3 16 -4 7 -2 8 4 4 7 -4 12 -11 12
-17 0 -5 9 -18 20 -29 l20 -20 0 20 c0 31 17 24 24 -10 4 -24 11 -30 31 -30
16 0 25 -6 25 -15 0 -19 -2 -19 -45 5 -19 11 -35 15 -35 10 0 -5 -13 -4 -31 2
-19 7 -27 13 -19 18 8 5 7 9 -4 13 -9 4 -16 2 -16 -4 0 -5 -13 -3 -30 6 -29
15 -33 49 -4 38 8 -3 14 0 14 6 0 15 -47 14 -53 -1 -3 -8 -6 -6 -6 4 -2 42 65
39 76 -3z m207 -85 c9 -22 8 -24 -9 -18 -8 4 -15 12 -15 20 0 19 16 18 24 -2z"/>
<path d="M4606 8674 c-6 -16 21 -71 30 -62 4 5 -15 78 -20 78 -2 0 -7 -7 -10
-16z"/>
<path d="M4317 8663 c-4 -3 -7 -13 -7 -21 0 -12 3 -12 15 -2 8 7 15 16 15 21
0 11 -14 12 -23 2z"/>
<path d="M6112 7965 l-22 -45 23 0 c13 0 31 6 41 13 17 13 17 15 2 45 -9 18
-18 32 -19 32 -2 0 -13 -20 -25 -45z"/>
<path d="M6120 7653 c0 -6 -3 -18 -6 -26 -3 -9 3 -16 15 -20 12 -3 21 -2 21 1
-1 13 -29 57 -30 45z"/>
<path d="M5062 8334 c4 -21 22 -23 26 -1 2 10 -3 17 -13 17 -10 0 -15 -6 -13
-16z"/>
<path d="M5103 7800 c10 -53 13 -56 37 -40 13 8 12 14 -5 47 -31 56 -44 54
-32 -7z"/>
<path d="M5060 7686 c0 -8 5 -18 10 -21 6 -3 10 3 10 14 0 12 -4 21 -10 21 -5
0 -10 -6 -10 -14z"/>
<path d="M5798 8483 c-3 -10 0 -34 5 -53 l10 -35 10 38 c9 38 5 67 -12 67 -5
0 -11 -8 -13 -17z"/>
<path d="M5687 7833 c-4 -21 -1 -33 15 -45 33 -29 38 -21 20 27 -19 52 -27 56
-35 18z"/>
<path d="M4460 8124 c-12 -32 -13 -82 -1 -68 9 9 22 94 15 94 -3 0 -9 -12 -14
-26z"/>
<path d="M5300 8250 c0 -5 5 -10 11 -10 5 0 7 5 4 10 -3 6 -8 10 -11 10 -2 0
-4 -4 -4 -10z"/>
<path d="M6690 7673 c0 -5 9 -18 20 -28 11 -10 20 -14 20 -8 0 5 -9 18 -20 28
-11 10 -20 14 -20 8z"/>
<path d="M3572 6820 c-16 -39 -18 -50 -7 -50 7 0 20 -2 27 -5 22 -9 46 69 28
90 -19 23 -26 19 -48 -35z"/>
<path d="M2917 6558 c-8 -28 -5 -30 28 -26 l27 3 -25 23 -24 23 -6 -23z"/>
<path d="M3446 6044 c-9 -24 -7 -54 3 -54 14 0 52 51 45 61 -9 15 -41 10 -48
-7z"/>
<path d="M3460 5590 c6 -11 13 -20 16 -20 2 0 0 9 -6 20 -6 11 -13 20 -16 20
-2 0 0 -9 6 -20z"/>
<path d="M4090 5889 c0 -11 5 -17 10 -14 6 3 10 13 10 21 0 8 -4 14 -10 14 -5
0 -10 -9 -10 -21z"/>
<path d="M5572 6820 c-16 -39 -18 -50 -7 -50 7 0 20 -2 27 -5 22 -9 46 69 28
90 -19 23 -26 19 -48 -35z"/>
<path d="M4917 6558 c-8 -28 -5 -30 28 -26 l27 3 -25 23 -24 23 -6 -23z"/>
<path d="M5446 6044 c-9 -24 -7 -54 3 -54 14 0 52 51 45 61 -9 15 -41 10 -48
-7z"/>
<path d="M5460 5590 c6 -11 13 -20 16 -20 2 0 0 9 -6 20 -6 11 -13 20 -16 20
-2 0 0 -9 6 -20z"/>
<path d="M7200 6405 c0 -9 102 -56 113 -52 7 2 -11 16 -40 30 -50 26 -73 33
-73 22z"/>
<path d="M7280 6111 c0 -5 7 -15 17 -22 15 -13 15 -12 4 9 -12 23 -21 28 -21
13z"/>
<path d="M7130 5925 c0 -15 4 -24 10 -20 6 3 10 12 10 20 0 8 -4 17 -10 20 -6
4 -10 -5 -10 -20z"/>
<path d="M8189 6658 c-12 -42 -17 -144 -7 -153 2 -3 23 2 45 11 55 22 60 55
21 123 -15 27 -32 52 -37 56 -6 3 -16 -14 -22 -37z"/>
<path d="M8190 6047 c1 -30 1 -31 15 -13 19 25 19 32 0 40 -11 4 -15 -2 -15
-27z"/>
<path d="M8250 5973 c1 -10 7 -31 14 -48 l13 -30 7 30 c4 17 9 38 12 48 4 13
-1 17 -20 17 -18 0 -26 -5 -26 -17z"/>
<path d="M6717 6883 c-13 -12 -7 -38 14 -63 l21 -25 -6 39 c-6 41 -18 61 -29
49z"/>
<path d="M6350 6855 c0 -8 0 -17 0 -20 0 -14 14 -7 28 13 13 20 13 22 -7 22
-12 0 -21 -6 -21 -15z"/>
<path d="M6528 6182 c-12 -30 -12 -44 -3 -72 l12 -35 7 68 c4 38 6 71 3 73 -2
2 -11 -13 -19 -34z"/>
<path d="M3706 3877 c-3 -15 -20 -42 -37 -61 l-30 -35 30 -60 c27 -53 64 -91
77 -78 6 5 -16 216 -25 240 -7 19 -8 19 -15 -6z"/>
<path d="M3611 3516 c-19 -23 7 -113 42 -142 37 -32 53 -30 72 6 15 29 15 30
-10 36 -18 4 -34 22 -50 54 -29 56 -39 65 -54 46z"/>
<path d="M3831 3458 c6 -14 23 -32 39 -41 56 -34 51 -15 -10 33 -38 30 -40 31
-29 8z"/>
<path d="M3280 3254 c-18 -25 -29 -48 -27 -51 3 -3 34 4 68 16 74 25 89 26 89
7 0 -28 16 -25 43 9 l26 33 -71 16 c-39 9 -76 16 -84 16 -7 0 -27 -21 -44 -46z"/>
<path d="M4580 4901 c0 -5 5 -13 10 -16 6 -3 10 -2 10 4 0 5 -4 13 -10 16 -5
3 -10 2 -10 -4z"/>
<path d="M4570 4462 c0 -5 10 -17 21 -28 22 -19 22 -19 10 3 -12 24 -31 39
-31 25z"/>
<path d="M4355 4146 c-26 -59 -44 -156 -28 -156 11 0 54 45 77 81 15 23 15 30
1 77 -9 29 -18 52 -21 52 -3 0 -16 -24 -29 -54z"/>
<path d="M6676 3877 c-3 -15 -20 -42 -37 -61 l-30 -35 30 -60 c27 -53 64 -91
77 -78 6 5 -16 216 -25 240 -7 19 -8 19 -15 -6z"/>
<path d="M5941 3627 c-5 -12 -21 -61 -37 -110 -26 -80 -27 -88 -12 -103 14
-15 19 -7 52 93 41 123 42 129 21 137 -10 4 -19 -2 -24 -17z"/>
<path d="M6581 3516 c-19 -23 7 -113 42 -142 37 -32 53 -30 72 6 15 29 15 30
-10 36 -18 4 -34 22 -50 54 -29 56 -39 65 -54 46z"/>
<path d="M5740 3517 c0 -2 19 -19 43 -37 37 -29 39 -30 17 -6 -23 25 -60 52
-60 43z"/>
<path d="M6801 3458 c6 -14 23 -32 39 -41 56 -34 51 -15 -10 33 -38 30 -40 31
-29 8z"/>
<path d="M6250 3254 c-18 -25 -29 -48 -27 -51 3 -3 34 4 68 16 74 25 89 26 89
7 0 -28 16 -25 43 9 l26 33 -71 16 c-39 9 -76 16 -84 16 -7 0 -27 -21 -44 -46z"/>
<path d="M5740 3021 c0 -87 1 -90 31 -115 l31 -26 310 0 310 0 29 29 c28 28
29 34 29 115 l0 86 -370 0 -370 0 0 -89z"/>
<path d="M6073 2794 c-12 -31 6 -145 28 -181 33 -52 67 -62 223 -64 75 0 136
-5 136 -10 0 -12 37 -12 45 1 3 6 28 10 54 10 39 0 52 5 76 30 l29 30 -60 0
c-32 0 -139 1 -236 3 -169 2 -179 3 -200 25 -19 18 -23 36 -26 97 l-4 75 -29
0 c-18 0 -32 -6 -36 -16z"/>
<path d="M6520 2640 c0 -5 4 -10 9 -10 6 0 13 5 16 10 3 6 -1 10 -9 10 -9 0
-16 -4 -16 -10z"/>
<path d="M6400 2300 c0 -5 5 -10 10 -10 6 0 10 5 10 10 0 6 -4 10 -10 10 -5 0
-10 -4 -10 -10z"/>
<path d="M6700 2300 c0 -5 7 -10 16 -10 8 0 12 5 9 10 -3 6 -10 10 -16 10 -5
0 -9 -4 -9 -10z"/>
<path d="M6370 2140 c0 -5 5 -10 10 -10 6 0 10 5 10 10 0 6 -4 10 -10 10 -5 0
-10 -4 -10 -10z"/>
<path d="M6437 2024 c-15 -15 -6 -31 16 -30 12 1 22 7 22 16 0 16 -26 25 -38
14z"/>
<path d="M6452 1884 c5 -25 35 -41 49 -27 18 18 3 43 -26 43 -19 0 -26 -5 -23
-16z"/>
<path d="M6517 1710 c-3 -11 -1 -20 4 -20 5 0 9 5 9 11 0 5 5 7 11 3 7 -4 10
-1 7 6 -7 22 -25 22 -31 0z"/>
<path d="M6588 1673 c-26 -7 -22 -24 5 -19 12 3 26 5 30 5 5 1 5 6 2 11 -6 10
-9 11 -37 3z"/>
<path d="M7320 3905 c-9 -11 -10 -28 -4 -62 8 -44 13 -50 54 -70 25 -12 49
-22 54 -23 5 0 6 26 4 57 -4 48 -10 61 -37 85 -35 32 -53 35 -71 13z"/>
<path d="M7536 3885 c-8 -39 -2 -55 18 -55 17 0 27 61 14 78 -17 20 -25 14
-32 -23z"/>
<path d="M7766 3672 c-9 -15 12 -54 25 -47 12 8 11 18 -4 40 -10 12 -16 14
-21 7z"/>
<path d="M7610 3581 c0 -5 5 -13 10 -16 6 -3 10 -2 10 4 0 5 -4 13 -10 16 -5
3 -10 2 -10 -4z"/>
<path d="M7707 3572 c-19 -21 -22 -57 -7 -67 34 -21 76 39 50 70 -16 19 -23
19 -43 -3z"/>
<path d="M7842 3559 c-1 -16 2 -29 8 -29 5 0 10 3 11 8 0 4 2 15 4 24 2 9 -2
19 -9 21 -7 3 -13 -6 -14 -24z"/>
<path d="M7474 3569 c-3 -6 -1 -16 5 -22 6 -6 11 -7 11 -3 0 5 6 3 14 -3 10
-8 16 -9 21 -1 3 5 -1 10 -9 10 -9 0 -16 7 -16 15 0 17 -16 20 -26 4z"/>
<path d="M7870 3540 c0 -5 4 -10 9 -10 6 0 13 5 16 10 3 6 -1 10 -9 10 -9 0
-16 -4 -16 -10z"/>
<path d="M7820 3482 c0 -7 42 -42 51 -42 14 0 21 22 10 33 -10 10 -61 17 -61
9z"/>
<path d="M7760 3459 c0 -5 5 -7 10 -4 6 3 10 8 10 11 0 2 -4 4 -10 4 -5 0 -10
-5 -10 -11z"/>
<path d="M7910 3450 c0 -11 4 -20 9 -20 13 0 32 26 24 33 -13 14 -33 6 -33
-13z"/>
<path d="M7757 3414 c-14 -14 -7 -35 11 -32 9 2 17 10 17 17 0 16 -18 25 -28
15z"/>
<path d="M7795 3388 c-3 -7 -6 -24 -7 -38 -2 -20 1 -25 20 -25 13 0 27 -6 31
-14 7 -11 12 -11 30 0 11 8 21 17 21 21 0 4 16 18 36 32 19 13 32 26 27 29 -5
3 -15 2 -22 -3 -8 -4 -31 -5 -52 -3 -30 4 -40 2 -45 -11 -3 -9 -11 -16 -16
-16 -6 0 -8 7 -5 15 4 8 2 17 -4 20 -5 4 -11 0 -14 -7z"/>
<path d="M7930 3315 c-8 -10 -5 -13 15 -11 28 1 33 11 11 19 -8 3 -20 0 -26
-8z"/>
<path d="M7785 3299 c-10 -15 3 -25 16 -12 7 7 7 13 1 17 -6 3 -14 1 -17 -5z"/>
<path d="M7765 3260 c3 -5 8 -10 11 -10 2 0 4 5 4 10 0 6 -5 10 -11 10 -5 0
-7 -4 -4 -10z"/>
<path d="M7927 3264 c-4 -4 -4 -10 -2 -14 6 -10 45 0 45 11 0 10 -33 12 -43 3z"/>
<path d="M7820 3249 c0 -5 5 -7 10 -4 6 3 10 8 10 11 0 2 -4 4 -10 4 -5 0 -10
-5 -10 -11z"/>
<path d="M7880 3250 c0 -5 5 -10 11 -10 5 0 7 5 4 10 -3 6 -8 10 -11 10 -2 0
-4 -4 -4 -10z"/>
<path d="M1382 4505 c-11 -42 -8 -75 7 -75 10 0 33 99 25 111 -11 18 -20 8
-32 -36z"/>
<path d="M1591 3897 c-12 -36 -15 -38 -44 -31 -18 4 -46 13 -63 22 -24 11 -38
12 -60 4 l-29 -10 28 -1 c31 -1 32 -4 12 -35 l-15 -23 72 -12 c40 -6 88 -9
105 -5 32 6 33 7 26 48 -3 22 -9 50 -13 61 -6 16 -9 13 -19 -18z"/>
<path d="M1420 3275 c0 -5 5 -17 10 -25 5 -8 10 -10 10 -5 0 6 -5 17 -10 25
-5 8 -10 11 -10 5z"/>
<path d="M1846 4875 c-9 -45 -7 -48 21 -27 22 17 22 18 4 41 l-18 24 -7 -38z"/>
<path d="M2132 4688 c2 -18 11 -24 38 -26 l35 -4 -24 26 c-31 32 -54 34 -49 4z"/>
<path d="M2270 4560 c6 -11 13 -20 16 -20 2 0 0 9 -6 20 -6 11 -13 20 -16 20
-2 0 0 -9 6 -20z"/>
<path d="M8590 4269 c0 -5 -3 -8 -7 -6 -5 3 -9 -6 -9 -19 -2 -29 6 -30 36 -6
13 11 20 24 16 30 -9 15 -36 16 -36 1z"/>
<path d="M8665 4180 c-3 -5 -1 -10 4 -10 6 0 11 5 11 10 0 6 -2 10 -4 10 -3 0
-8 -4 -11 -10z"/>
<path d="M8720 4153 c0 -5 5 -14 11 -20 8 -8 8 -13 0 -17 -6 -4 -11 0 -11 8 0
9 -7 16 -15 16 -17 0 -20 -27 -5 -50 7 -10 12 -11 18 -4 4 6 15 13 25 17 23 9
19 50 -5 55 -10 2 -18 0 -18 -5z"/>
<path d="M8525 4070 c3 -5 8 -10 11 -10 2 0 4 5 4 10 0 6 -5 10 -11 10 -5 0
-7 -4 -4 -10z"/>
<path d="M8745 4051 c-7 -12 12 -24 25 -16 11 7 4 25 -10 25 -5 0 -11 -4 -15
-9z"/>
<path d="M8410 4030 c0 -5 5 -10 10 -10 6 0 10 5 10 10 0 6 -4 10 -10 10 -5 0
-10 -4 -10 -10z"/>
<path d="M8560 4019 c0 -5 5 -7 10 -4 6 3 10 8 10 11 0 2 -4 4 -10 4 -5 0 -10
-5 -10 -11z"/>
<path d="M8434 4009 c-6 -10 33 -22 46 -14 6 4 8 10 5 15 -6 10 -44 9 -51 -1z"/>
<path d="M8527 4004 c-4 -4 -2 -13 4 -20 6 -8 8 -21 5 -30 -5 -14 -4 -15 9 -4
9 7 15 22 13 33 -3 21 -20 32 -31 21z"/>
<path d="M8420 3910 c0 -11 5 -20 10 -20 6 0 10 9 10 20 0 11 -4 20 -10 20 -5
0 -10 -9 -10 -20z"/>
<path d="M8570 3900 c0 -5 5 -10 10 -10 6 0 10 5 10 10 0 6 -4 10 -10 10 -5 0
-10 -4 -10 -10z"/>
<path d="M8540 3861 c0 -5 9 -13 20 -16 11 -3 20 -11 20 -16 0 -5 7 -9 15 -9
8 0 15 5 15 10 0 6 -7 10 -15 10 -8 0 -15 7 -15 15 0 8 -9 15 -20 15 -11 0
-20 -4 -20 -9z"/>
<path d="M8500 3839 c0 -7 -11 -32 -25 -56 -25 -41 -27 -42 -49 -28 -12 8 -26
12 -29 8 -22 -22 22 -63 68 -63 49 0 102 31 88 52 -9 15 19 39 38 33 11 -4 19
-2 19 4 0 16 -61 25 -71 10 -9 -14 -10 -12 -13 30 -1 18 -26 27 -26 10z"/>
<path d="M8697 3843 c-16 -15 -6 -34 15 -31 29 4 38 38 10 38 -10 0 -22 -3
-25 -7z"/>
<path d="M8652 3778 c5 -15 28 -23 28 -10 0 5 -7 13 -16 16 -10 4 -14 1 -12
-6z"/>
<path d="M8650 3729 c0 -5 5 -7 10 -4 6 3 10 8 10 11 0 2 -4 4 -10 4 -5 0 -10
-5 -10 -11z"/>
<path d="M8762 3688 c7 -19 38 -22 38 -4 0 10 -9 16 -21 16 -12 0 -19 -5 -17
-12z"/>
<path d="M8505 3680 c3 -5 8 -10 11 -10 2 0 4 5 4 10 0 6 -5 10 -11 10 -5 0
-7 -4 -4 -10z"/>
<path d="M8635 3680 c3 -5 8 -10 11 -10 2 0 4 5 4 10 0 6 -5 10 -11 10 -5 0
-7 -4 -4 -10z"/>
<path d="M8590 3670 c0 -5 -7 -10 -15 -10 -10 0 -12 -6 -7 -21 12 -32 27 -28
29 9 1 17 -1 32 -3 32 -2 0 -4 -4 -4 -10z"/>
<path d="M8591 3606 l-24 -13 27 -5 c20 -4 26 -1 26 13 0 22 2 22 -29 5z"/>
<path d="M8550 3535 c0 -2 12 -16 26 -30 31 -31 54 -21 32 14 -11 18 -58 31
-58 16z"/>
<path d="M8720 3530 c20 -13 33 -13 25 0 -3 6 -14 10 -23 10 -15 0 -15 -2 -2
-10z"/>
<path d="M8464 3485 c1 -41 13 -45 26 -9 11 28 6 44 -14 44 -8 0 -12 -13 -12
-35z"/>
<path d="M8630 3465 c0 -8 -5 -15 -12 -17 -6 -2 -8 -10 -4 -17 10 -16 36 4 36
28 0 9 3 12 8 6 4 -5 18 -10 32 -10 45 0 31 20 -15 21 -31 1 -45 -3 -45 -11z"/>
<path d="M8510 3456 c0 -23 16 -27 17 -5 1 10 -2 19 -8 19 -5 0 -9 -6 -9 -14z"/>
<path d="M8747 3433 c-4 -3 -7 -12 -7 -20 0 -15 26 -18 34 -4 7 11 -18 33 -27
24z"/>
<path d="M8580 3414 c0 -8 5 -12 10 -9 6 3 10 10 10 16 0 5 -4 9 -10 9 -5 0
-10 -7 -10 -16z"/>
<path d="M8660 3419 c0 -5 5 -7 10 -4 6 3 10 8 10 11 0 2 -4 4 -10 4 -5 0 -10
-5 -10 -11z"/>
<path d="M8463 3402 c-17 -11 -9 -46 10 -50 20 -4 23 14 5 21 -8 3 -5 6 5 6
10 1 17 6 15 13 -5 15 -20 20 -35 10z"/>
<path d="M8617 3389 c-22 -13 -22 -42 1 -62 21 -19 38 -11 47 25 8 32 -19 53
-48 37z"/>
<path d="M8510 3337 c0 -8 6 -14 14 -14 8 0 12 6 9 14 -3 7 -9 13 -14 13 -5 0
-9 -6 -9 -13z"/>
<path d="M8480 3330 c-1 -3 -4 -27 -7 -54 -4 -34 -2 -47 6 -42 6 4 19 2 30 -4
23 -12 42 7 21 20 -7 4 -20 25 -30 46 -10 22 -19 37 -20 34z"/>
<path d="M8391 3282 c-15 -29 -15 -29 19 -34 18 -3 35 1 41 9 9 10 7 13 -6 13
-10 0 -23 8 -30 17 -11 15 -13 15 -24 -5z"/>
<path d="M8561 3260 c-10 -6 -8 -13 8 -29 25 -25 47 -23 44 5 -1 10 3 21 8 25
6 3 -3 6 -18 7 -16 0 -35 -3 -42 -8z"/>
<path d="M8443 3223 c-16 -6 -17 -33 -3 -33 11 0 26 28 19 34 -2 2 -10 1 -16
-1z"/>
<path d="M2971 3627 c-5 -12 -21 -61 -37 -110 -26 -80 -27 -88 -12 -103 14
-15 19 -7 52 93 41 123 42 129 21 137 -10 4 -19 -2 -24 -17z"/>
<path d="M2770 3517 c0 -2 19 -19 43 -37 37 -29 39 -30 17 -6 -23 25 -60 52
-60 43z"/>
<path d="M8957 3924 c-9 -10 2 -24 19 -24 8 0 14 7 14 15 0 15 -21 21 -33 9z"/>
<path d="M9230 3499 c0 -5 5 -7 10 -4 6 3 10 8 10 11 0 2 -4 4 -10 4 -5 0 -10
-5 -10 -11z"/>
<path d="M9151 3444 c13 -16 29 -19 29 -5 0 5 -9 11 -21 14 -16 4 -18 3 -8 -9z"/>
<path d="M9476 3445 c4 -8 12 -15 20 -15 8 0 14 7 14 15 0 8 -9 15 -20 15 -13
0 -18 -5 -14 -15z"/>
<path d="M9330 3341 c0 -24 21 -51 51 -67 29 -14 30 -14 21 3 -15 28 -72 78
-72 64z"/>
<path d="M8945 3251 c-3 -5 -1 -12 5 -16 5 -3 10 1 10 9 0 18 -6 21 -15 7z"/>
<path d="M9125 3225 c0 -27 15 -38 36 -25 11 7 9 13 -10 29 -13 12 -24 21 -25
21 -1 0 -1 -11 -1 -25z"/>
<path d="M8997 3233 c-4 -3 -7 -11 -7 -17 0 -6 5 -5 12 2 6 6 9 14 7 17 -3 3
-9 2 -12 -2z"/>
<path d="M9405 3230 c3 -5 8 -10 11 -10 2 0 4 5 4 10 0 6 -5 10 -11 10 -5 0
-7 -4 -4 -10z"/>
<path d="M9300 3209 c0 -5 5 -7 10 -4 6 3 10 8 10 11 0 2 -4 4 -10 4 -5 0 -10
-5 -10 -11z"/>
<path d="M7365 2800 c-3 -5 -1 -10 4 -10 6 0 11 5 11 10 0 6 -2 10 -4 10 -3 0
-8 -4 -11 -10z"/>
<path d="M7510 2790 c0 -6 7 -10 15 -10 8 0 15 2 15 4 0 2 -7 6 -15 10 -8 3
-15 1 -15 -4z"/>
<path d="M7714 2679 c-6 -10 12 -29 29 -29 9 0 9 4 1 24 -7 19 -20 21 -30 5z"/>
<path d="M8135 2210 c-3 -5 1 -10 9 -10 9 0 16 5 16 10 0 6 -4 10 -9 10 -6 0
-13 -4 -16 -10z"/>
<path d="M7020 2010 c0 -5 5 -10 11 -10 5 0 7 5 4 10 -3 6 -8 10 -11 10 -2 0
-4 -4 -4 -10z"/>
<path d="M6780 1940 c0 -5 5 -10 10 -10 6 0 10 5 10 10 0 6 -4 10 -10 10 -5 0
-10 -4 -10 -10z"/>
<path d="M7430 2020 c0 -5 5 -10 10 -10 6 0 10 5 10 10 0 6 -4 10 -10 10 -5 0
-10 -4 -10 -10z"/>
<path d="M7360 2010 c-13 -8 -12 -10 3 -10 9 0 17 5 17 10 0 12 -1 12 -20 0z"/>
<path d="M7275 1990 c-3 -5 -1 -10 4 -10 6 0 11 5 11 10 0 6 -2 10 -4 10 -3 0
-8 -4 -11 -10z"/>
<path d="M7856 2008 c7 -11 34 -10 34 1 0 6 -9 9 -19 8 -11 0 -17 -5 -15 -9z"/>
<path d="M7177 1413 c-8 -7 11 -33 24 -33 5 0 9 9 9 20 0 19 -20 27 -33 13z"/>
<path d="M7170 1580 c0 -5 5 -10 11 -10 5 0 7 5 4 10 -3 6 -8 10 -11 10 -2 0
-4 -4 -4 -10z"/>
<path d="M7628 1368 c5 -5 16 -8 23 -6 8 3 3 7 -10 11 -17 4 -21 3 -13 -5z"/>
</g>
</svg>
